:SAMPLES-PER-SECOND 30
:FULLY-SPECIFIED
:DEGREES
497
root  -5.33465 37.9445 -6.57417 5.30437 58.7237 9.41241
RightUpLeg  12.4223 -12.7585 -9.23929
RightLeg  41.631 12.3807 11.2923
RightFoot  -5.15029 -0.998289 18.0089
RightToes  6.35927e-011 1.30204e-014 -6.03759e-014
Spine  6.30633 3.55354 3.35345
Spine1  7.31518 6.40583 -11.9632
HEad  -18.1477 11.7813 -8.03051
LeftShoulder1  -0.565996 4.9638 -32.6182
LeftArm  -7.90976 16.6971 -37.5075
LeftForeArm  25.8749 -7.16731 -6.39511
LeftHand  -0.0172812 8.18794 1.07213
RightShoulder  -0.705494 -5.44021 29.7433
RightArm  37.9929 4.00137 54.0421
RightForeArm  5.5528 15.8997 8.30053
RightHand  -0.153473 1.19412 -2.82821
LeftUpLeg  -17.4589 3.97201 -13.8658
LeftLeg  24.5017 11.5855 6.05195
LeftFoot  -5.64253 -0.501402 10.7082
LeftToes  -7.16024e-010 4.79583e-011 -5.98286e-011
498
root  -4.60745 37.9681 -6.07561 6.20444 58.7939 10.9384
RightUpLeg  6.0724 -9.14798 -9.68039
RightLeg  52.6153 10.3363 13.7863
RightFoot  1.0907 -1.91878 17.6394
RightToes  6.35927e-011 1.30204e-014 -6.03759e-014
Spine  7.04994 3.59109 1.83176
Spine1  7.56114 6.18047 -12.1729
HEad  -18.0984 12.2711 -8.38038
LeftShoulder1  -0.553316 4.92995 -32.6507
LeftArm  -7.37986 16.9613 -37.8354
LeftForeArm  25.7592 -7.87885 -6.69719
LeftHand  -0.0176242 8.36684 1.02815
RightShoulder  -0.711239 -5.4645 29.5911
RightArm  35.4844 4.19447 53.3586
RightForeArm  9.12245 14.8154 8.65451
RightHand  -0.117057 0.777143 -2.2971
LeftUpLeg  -15.6541 4.17198 -14.4845
LeftLeg  24.935 11.5344 6.14467
LeftFoot  -7.41415 -0.299302 9.98997
LeftToes  -7.16024e-010 4.79583e-011 -5.98286e-011
499
root  -3.8444 38.0708 -5.5498 6.12672 59.6708 11.424
RightUpLeg  0.482466 -6.22517 -9.60182
RightLeg  60.4429 7.31886 13.2084
RightFoot  2.80556 -1.82595 14.7439
RightToes  6.35927e-011 1.30204e-014 -6.03759e-014
Spine  7.53983 3.38276 0.766545
Spine1  8.03775 5.64031 -11.6287
HEad  -17.9895 12.479 -8.50847
LeftShoulder1  -0.56021 4.93874 -32.8894
LeftArm  -6.6425 16.2804 -38.3148
LeftForeArm  25.9124 -8.49326 -7.03582
LeftHand  -0.00989191 8.57303 1.27289
RightShoulder  -0.719981 -5.49335 29.5117
RightArm  31.9225 3.82757 52.0729
RightForeArm  10.5292 14.435 8.40271
RightHand  -0.110953 0.907789 -2.14482
LeftUpLeg  -13.2265 3.94828 -14.4028
LeftLeg  24.6627 11.2032 5.88782
LeftFoot  -8.92458 -0.141936 9.29241
LeftToes  -7.16024e-010 4.79583e-011 -5.98286e-011
500
root  -3.01412 38.2757 -4.98877 5.23151 61.5704 10.6948
RightUpLeg  -4.49181 -4.23807 -8.97453
RightLeg  64.6247 4.5313 9.80695
RightFoot  2.02783 -1.26317 10.8495
RightToes  6.35927e-011 1.30204e-014 -6.03759e-014
Spine  7.50388 2.83197 0.284111
Spine1  8.45141 4.72161 -10.3659
HEad  -17.4887 12.397 -8.23634
LeftShoulder1  -0.595904 5.02019 -33.1437
LeftArm  -5.85534 15.008 -39.0042
LeftForeArm  26.1875 -9.06897 -7.31714
LeftHand  -0.0023639 8.53278 1.54252
RightShoulder  -0.742281 -5.5534 29.5518
RightArm  28.2794 2.87924 50.2855
RightForeArm  8.97296 14.5059 7.89649
RightHand  -0.168904 1.64365 -2.92542
LeftUpLeg  -10.4205 2.92959 -13.5437
LeftLeg  23.581 10.7141 5.25279
LeftFoot  -9.91119 -0.0552833 9.22475
LeftToes  -7.16024e-010 4.79583e-011 -5.98286e-011
501
root  -2.18046 38.471 -4.4276 4.21425 64.0582 9.62793
RightUpLeg  -9.04664 -2.70275 -8.3595
RightLeg  65.4952 2.78329 6.10633
RightFoot  1.25494 -0.775629 7.11252
RightToes  6.35927e-011 1.30204e-014 -6.03759e-014
Spine  7.37621 2.14575 -0.168517
Spine1  8.71166 3.61422 -8.83965
HEad  -17.0627 12.1448 -7.68931
LeftShoulder1  -0.632167 5.10952 -33.2138
LeftArm  -4.71763 13.3042 -39.8553
LeftForeArm  26.0629 -9.77314 -7.60578
LeftHand  0.00394918 8.41071 1.80621
RightShoulder  -0.779139 -5.64796 29.6934
RightArm  24.7113 1.58687 48.3843
RightForeArm  6.35469 14.7205 7.33054
RightHand  -0.261706 2.67478 -3.98792
LeftUpLeg  -7.78855 1.97234 -12.4841
LeftLeg  22.4572 9.586 4.43137
LeftFoot  -10.8804 0.0276854 9.34817
LeftToes  -7.16024e-010 4.79583e-011 -5.98286e-011
502
root  -1.35384 38.6272 -3.87908 3.22523 66.6419 8.69196
RightUpLeg  -12.8979 -1.297 -8.08276
RightLeg  63.363 2.01715 3.83555
RightFoot  0.806424 -0.459404 4.36113
RightToes  6.35927e-011 1.30204e-014 -6.03759e-014
Spine  7.56512 1.53912 -0.601406
Spine1  8.82302 2.63476 -7.41524
HEad  -17.1325 11.6845 -7.14039
LeftShoulder1  -0.638395 5.12846 -33.1374
LeftArm  -3.01528 11.0497 -40.7262
LeftForeArm  25.4379 -10.5264 -7.94871
LeftHand  0.0157433 8.41365 2.23069
RightShoulder  -0.800247 -5.70446 29.7305
RightArm  21.1138 0.09568 46.7972
RightForeArm  5.13782 14.922 6.70479
RightHand  -0.293566 3.17207 -4.21619
LeftUpLeg  -5.16473 1.628 -11.4519
LeftLeg  21.3556 7.69935 3.50175
LeftFoot  -11.9953 0.124714 9.18654
LeftToes  -7.16024e-010 4.79583e-011 -5.98286e-011
503
root  -0.515359 38.7693 -3.34812 2.08624 69.117 7.77368
RightUpLeg  -15.7546 -0.056904 -8.1033
RightLeg  58.3633 1.88589 2.84819
RightFoot  -0.240729 -0.319355 3.28018
RightToes  6.35927e-011 1.30204e-014 -6.03759e-014
Spine  8.09029 1.0665 -0.706056
Spine1  8.79607 1.92823 -6.24399
HEad  -17.494 10.9192 -6.67506
LeftShoulder1  -0.61426 5.06977 -33.0714
LeftArm  -1.15338 8.28677 -41.5503
LeftForeArm  24.7937 -11.1754 -8.2471
LeftHand  0.0299901 8.448 2.72404
RightShoulder  -0.787947 -5.68052 29.5606
RightArm  17.8876 -1.44965 45.6545
RightForeArm  5.49998 14.8925 6.16088
RightHand  -0.259303 2.98748 -3.82087
LeftUpLeg  -2.33636 1.67871 -10.4181
LeftLeg  20.0478 5.42993 2.59771
LeftFoot  -12.8611 0.198637 9.09745
LeftToes  -7.16024e-010 4.79583e-011 -5.98286e-011
504
root  0.33966 38.8573 -2.82676 1.11324 71.3786 7.10608
RightUpLeg  -17.5351 1.03892 -8.46179
RightLeg  50.6678 2.20483 2.52715
RightFoot  -1.72743 -0.339439 3.9075
RightToes  6.35927e-011 1.30204e-014 -6.03759e-014
Spine  8.75669 0.709542 -0.612614
Spine1  8.68467 1.45464 -5.48092
HEad  -17.8087 9.98106 -6.19938
LeftShoulder1  -0.573825 4.96799 -33.0387
LeftArm  0.32035 5.38143 -42.3843
LeftForeArm  24.2758 -11.7763 -8.35863
LeftHand  0.0375308 8.33095 3.08322
RightShoulder  -0.759388 -5.61203 29.37
RightArm  15.648 -2.74911 44.7995
RightForeArm  5.98591 14.317 5.94248
RightHand  -0.254939 2.94542 -3.77428
LeftUpLeg  0.397946 1.99771 -9.46693
LeftLeg  18.9759 3.03464 1.88781
LeftFoot  -13.6571 0.271948 9.34744
LeftToes  -7.16024e-010 4.79583e-011 -5.98286e-011
505
root  1.2392 38.8524 -2.30103 0.906342 73.3056 7.10858
RightUpLeg  -18.3582 2.01605 -9.1515
RightLeg  40.7093 2.89023 2.38515
RightFoot  -2.79089 -0.38644 4.90042
RightToes  6.35927e-011 1.30204e-014 -6.03759e-014
Spine  9.1871 0.418851 -0.491756
Spine1  8.58903 1.15947 -5.12208
HEad  -18.0357 9.14449 -5.73056
LeftShoulder1  -0.53272 4.86564 -32.9688
LeftArm  1.53563 2.71266 -43.2225
LeftForeArm  23.2749 -12.5122 -8.27189
LeftHand  0.0408756 8.04175 3.48268
RightShoulder  -0.726174 -5.5227 29.2999
RightArm  14.388 -3.67722 44.1606
RightForeArm  6.25175 13.1479 6.05617
RightHand  -0.291485 3.30855 -4.13141
LeftUpLeg  2.7682 2.48863 -8.64755
LeftLeg  18.4081 0.711015 1.30552
LeftFoot  -14.9649 0.388457 9.42597
LeftToes  -7.16024e-010 4.79583e-011 -5.98286e-011
506
root  2.20572 38.8131 -1.7881 1.54332 74.9188 7.62744
RightUpLeg  -18.5395 2.76009 -10.0152
RightLeg  29.0678 3.69988 2.09243
RightFoot  -3.13329 -0.385413 5.06726
RightToes  6.35927e-011 1.30204e-014 -6.03759e-014
Spine  9.04919 0.148142 -0.123076
Spine1  8.62872 0.993877 -4.85423
HEad  -18.226 8.39813 -5.47955
LeftShoulder1  -0.513349 4.81892 -32.8879
LeftArm  3.01864 0.365768 -43.9517
LeftForeArm  21.4806 -13.3837 -8.11642
LeftHand  0.0462709 7.66109 4.19865
RightShoulder  -0.68114 -5.40006 29.2212
RightArm  13.5387 -4.60365 43.8207
RightForeArm  7.18702 11.87 6.20815
RightHand  -0.300676 3.44473 -4.19645
LeftUpLeg  4.91496 2.90369 -7.88554
LeftLeg  17.643 -1.38246 0.71005
LeftFoot  -16.4398 0.50341 9.06454
LeftToes  -7.16024e-010 4.79583e-011 -5.98286e-011
507
root  3.22972 38.7602 -1.28955 2.94405 76.4073 8.72095
RightUpLeg  -18.2027 1.59663 -10.4691
RightLeg  16.7983 5.71588 1.21847
RightFoot  -3.15853 -0.406871 5.38152
RightToes  6.35927e-011 1.30204e-014 -6.03759e-014
Spine  8.50267 -0.0714409 0.486234
Spine1  8.90886 0.884826 -4.49207
HEad  -18.429 7.46785 -5.61662
LeftShoulder1  -0.524401 4.84757 -32.8768
LeftArm  4.7856 -1.79827 -44.5721
LeftForeArm  19.6258 -14.205 -7.98247
LeftHand  0.048731 7.28258 4.99427
RightShoulder  -0.637265 -5.28452 29.0588
RightArm  12.812 -5.9352 43.6827
RightForeArm  8.71858 11.1364 6.15114
RightHand  -0.267137 3.08941 -3.88846
LeftUpLeg  7.02596 3.21583 -7.17256
LeftLeg  16.6073 -3.30848 0.132012
LeftFoot  -17.5429 0.585729 8.83487
LeftToes  -7.16024e-010 4.79583e-011 -5.98286e-011
508
root  4.32458 38.6141 -0.756186 5.05615 77.8464 10.8472
RightUpLeg  -17.3894 -4.55396 -9.28358
RightLeg  6.3072 11.4355 -0.660215
RightFoot  -3.51279 -0.503752 7.02289
RightToes  6.35927e-011 1.30204e-014 -6.03759e-014
Spine  8.0525 -0.199664 0.943208
Spine1  9.45945 0.790954 -4.18197
HEad  -18.8142 6.37828 -6.08388
LeftShoulder1  -0.538825 4.88332 -32.9106
LeftArm  6.3029 -3.77826 -45.2351
LeftForeArm  18.4888 -14.9021 -7.81181
LeftHand  0.0438411 6.98787 5.41844
RightShoulder  -0.625811 -5.25555 28.988
RightArm  12.3375 -7.44655 43.4832
RightForeArm  9.75876 11.0527 5.97244
RightHand  -0.238977 2.70467 -3.64235
LeftUpLeg  9.31221 3.49464 -6.51732
LeftLeg  16.1695 -5.07277 -0.337139
LeftFoot  -18.8201 0.701497 8.97435
LeftToes  -7.16024e-010 4.79583e-011 -5.98286e-011
509
root  5.49104 38.3612 -0.170216 6.69321 79.089 12.862
RightUpLeg  -16.9684 -8.65895 -8.49129
RightLeg  1.16204 13.4218 -1.43824
RightFoot  -4.16202 -0.559159 8.41701
RightToes  6.35927e-011 1.30204e-014 -6.03759e-014
Spine  7.91019 -0.285712 1.31743
Spine1  10.1602 0.663298 -3.81702
HEad  -19.4533 5.52468 -6.70956
LeftShoulder1  -0.529115 4.85921 -32.8892
LeftArm  7.20965 -5.20948 -45.9686
LeftForeArm  17.8456 -15.5839 -7.51047
LeftHand  0.0353422 6.75221 5.53678
RightShoulder  -0.642624 -5.29919 29.0685
RightArm  12.1346 -8.57704 43.222
RightForeArm  10.101 11.0974 5.85994
RightHand  -0.222837 2.58285 -3.45295
LeftUpLeg  11.8329 3.29872 -5.84315
LeftLeg  16.3632 -6.16678 -0.536358
LeftFoot  -20.7838 0.853219 8.80989
LeftToes  -7.16024e-010 4.79583e-011 -5.98286e-011
510
root  6.68478 38.0719 0.443755 6.46916 80.141 12.7667
RightUpLeg  -17.6856 -8.53323 -8.18165
RightLeg  2.84543 10.6118 -0.634787
RightFoot  -3.57012 -0.553208 7.81782
RightToes  6.35927e-011 1.30204e-014 -6.03759e-014
Spine  7.81814 -0.421222 1.87721
Spine1  10.6783 0.340649 -2.99648
HEad  -19.9987 5.25868 -7.34211
LeftShoulder1  -0.50833 4.80935 -32.7901
LeftArm  7.63817 -5.66504 -46.5915
LeftForeArm  17.0478 -16.316 -7.10261
LeftHand  0.0274386 6.5107 5.77667
RightShoulder  -0.650339 -5.32045 29.0799
RightArm  11.8641 -9.26014 43.1341
RightForeArm  10.5722 10.8968 5.79683
RightHand  -0.198706 2.60947 -3.09344
LeftUpLeg  14.0045 1.72806 -5.30219
LeftLeg  16.796 -5.65466 -0.31634
LeftFoot  -22.8217 0.958039 8.14496
LeftToes  -7.16024e-010 4.79583e-011 -5.98286e-011
511
root  7.93084 37.7716 1.09267 3.88109 81.3251 9.93488
RightUpLeg  -19.2146 -7.09419 -7.56051
RightLeg  8.50777 7.42674 0.276324
RightFoot  -0.490956 -0.58534 6.14903
RightToes  6.35927e-011 1.30204e-014 -6.03759e-014
Spine  7.65355 -0.734188 2.55454
Spine1  10.6871 -0.288095 -1.79344
HEad  -20.2499 5.32156 -7.94958
LeftShoulder1  -0.496128 4.78134 -32.69
LeftArm  7.88526 -5.16323 -46.9557
LeftForeArm  16.0756 -17.0365 -6.69239
LeftHand  0.022093 6.30681 6.18994
RightShoulder  -0.643337 -5.30638 28.9681
RightArm  11.2836 -9.82305 43.1753
RightForeArm  11.2288 10.6357 5.6577
RightHand  -0.184319 2.77824 -2.83709
LeftUpLeg  15.5543 -1.77224 -5.04342
LeftLeg  17.9668 -3.06927 0.105278
LeftFoot  -24.308 1.00498 7.53768
LeftToes  -7.16024e-010 4.79583e-011 -5.98286e-011
